 Full Credits To Feel Free :)

 ######## ######## ######## ##          ######## ########  ######## ######## 
 ##       ##       ##       ##          ##       ##     ## ##       ##       
 ##       ##       ##       ##          ##       ##     ## ##       ##       
 ######   ######   ######   ##          ######   ########  ######   ######   
 ##       ##       ##       ##          ##       ##   ##   ##       ##       
 ##       ##       ##       ##          ##       ##    ##  ##       ##       
 ##       ######## ######## ########    ##       ##     ## ######## ########


 Genre:Sci-Fi
 Language:English  http://www.imdb.com/title/tt1545986
 Source:BluRay.720p.AC3.x264-CHD Thanks!

 
 Format : MPEG-4
 Format profile : Base Media
 Codec ID : isom
 File size : 2.13 GiB
 Duration : 1h 30mn
 Overall bit rate : 3 386 Kbps

 
 Video
 ID : 1
 Format : AVC
 Format/Info : Advanced Video Codec
 Format profile : High@L4.1
 Format settings, CABAC : Yes
 Format settings, ReFrames : 3 frames
 Codec ID : avc1
 Codec ID/Info : Advanced Video Coding
 Duration : 1h 30mn
 Bit rate mode : Variable
 Bit rate : 3 000 Kbps
 Maximum bit rate : 17.1 Mbps
 Width : 1 280 pixels
 Height : 720 pixels
 Display aspect ratio : 16:9
 Frame rate mode : Constant
 Frame rate : 23.976 fps
 Color space : YUV
 Chroma subsampling : 4:2:0
 Bit depth : 8 bits
 Scan type : Progressive
 Bits/(Pixel*Frame) : 0.136
 Stream size : 1.86 GiB (87%)
 Writing library : x264 

  
 Audio
 ID : 2
 Format : AAC
 Format/Info : Advanced Audio Codec
 Format version : Version 4
 Format profile : LC
 Format settings, SBR : No
 Codec ID : 40
 Duration : 1h 30mn
 Bit rate mode : Variable
 Bit rate : 437 Kbps
 Maximum bit rate : 503 Kbps
 Channel(s) : 6 channels
 Channel positions : Front: L C R, Side: L R, LFE
 Sampling rate : 48.0 KHz
 Stream size : 282 MiB (13%)

  
 Plot :
 A baby dinoshark swim away from a broken chunk of Arctic glacier. Three years 
 later, the now fully grown and voraciously hungry prehistoric shark that looks 
 more like an aquatic stegosaurus than a typical shark arrives in the waters off 
 the coast of tourist hot spot Puerto Vallarta, Mexico and proceeds to munch on 
 completely random swimmers, boaters, surfers, jet skiers.

 



 ==================================  http://thepiratebay.org/user/hiest
 ==================================





 Screen Shots:
  http://leetleech.org/images/46999584275531375209.png
  http://leetleech.org/images/98068633729267737502.png
  http://leetleech.org/images/19422565168170629476.png
  http://leetleech.org/images/38186905748470299476.png


 Full Credits To Feel Free :)

 ######## ######## ######## ##          ######## ########  ######## ######## 
 ##       ##       ##       ##          ##       ##     ## ##       ##       
 ##       ##       ##       ##          ##       ##     ## ##       ##       
 ######   ######   ######   ##          ######   ########  ######   ######   
 ##       ##       ##       ##          ##       ##   ##   ##       ##       
 ##       ##       ##       ##          ##       ##    ##  ##       ##       
 ##       ######## ######## ########    ##       ##     ## ######## ########